<svg id="canvas" height="auto" xmlns="http://www.w3.org/2000/svg" version="1.1" xmlns:xlink="http://www.w3.org/1999/xlink" xmlns:svgjs="http://svgjs.dev/svgjs" viewBox="0 0 2560 1600" width="auto" style="width: auto; height: auto;"><rect width="2560" height="1600" fill="#181717"/><line x1="0" y1="88.27586206896552" x2="88.27586206896552" y2="0" stroke-linecap="square" stroke-width="5" stroke="#322f2f"/><line x1="88.27586206896552" y1="0" x2="176.55172413793105" y2="88.27586206896552" stroke-linecap="square" stroke-width="5" stroke="#312e2e"/><line x1="176.55172413793105" y1="88.27586206896552" x2="264.82758620689657" y2="0" stroke-linecap="square" stroke-width="5" stroke="#312e2e"/><line x1="264.82758620689657" y1="88.27586206896552" x2="353.1034482758621" y2="0" stroke-linecap="square" stroke-width="5" stroke="#302e2e"/><line x1="353.1034482758621" y1="88.27586206896552" x2="441.3793103448276" y2="0" stroke-linecap="square" stroke-width="5" stroke="#302d2d"/><line x1="441.3793103448276" y1="88.27586206896552" x2="529.6551724137931" y2="0" stroke-linecap="square" stroke-width="5" stroke="#302d2d"/><line x1="529.6551724137931" y1="0" x2="617.9310344827586" y2="88.27586206896552" stroke-linecap="square" stroke-width="5" stroke="#2f2d2d"/><line x1="617.9310344827586" y1="88.27586206896552" x2="706.2068965517242" y2="0" stroke-linecap="square" stroke-width="5" stroke="#2f2d2d"/><line x1="706.2068965517242" y1="88.27586206896552" x2="794.4827586206898" y2="0" stroke-linecap="square" stroke-width="5" stroke="#2e2c2c"/><line x1="794.4827586206898" y1="88.27586206896552" x2="882.7586206896553" y2="0" stroke-linecap="square" stroke-width="5" stroke="#2e2c2c"/><line x1="882.7586206896553" y1="0" x2="971.0344827586209" y2="88.27586206896552" stroke-linecap="square" stroke-width="5" stroke="#2d2c2c"/><line x1="971.0344827586209" y1="88.27586206896552" x2="1059.3103448275865" y2="0" stroke-linecap="square" stroke-width="5" stroke="#2d2b2b"/><line x1="1059.3103448275865" y1="88.27586206896552" x2="1147.586206896552" y2="0" stroke-linecap="square" stroke-width="5" stroke="#2d2b2b"/><line x1="1147.586206896552" y1="88.27586206896552" x2="1235.8620689655177" y2="0" stroke-linecap="square" stroke-width="5" stroke="#2c2b2b"/><line x1="1235.8620689655177" y1="0" x2="1324.1379310344832" y2="88.27586206896552" stroke-linecap="square" stroke-width="5" stroke="#2c2a2a"/><line x1="1324.1379310344832" y1="0" x2="1412.4137931034488" y2="88.27586206896552" stroke-linecap="square" stroke-width="5" stroke="#2b2a2a"/><line x1="1412.4137931034488" y1="88.27586206896552" x2="1500.6896551724144" y2="0" stroke-linecap="square" stroke-width="5" stroke="#2b2a2a"/><line x1="1500.6896551724144" y1="0" x2="1588.96551724138" y2="88.27586206896552" stroke-linecap="square" stroke-width="5" stroke="#2b2929"/><line x1="1588.96551724138" y1="0" x2="1677.2413793103456" y2="88.27586206896552" stroke-linecap="square" stroke-width="5" stroke="#2a2929"/><line x1="1677.2413793103456" y1="0" x2="1765.5172413793111" y2="88.27586206896552" stroke-linecap="square" stroke-width="5" stroke="#2a2929"/><line x1="1765.5172413793111" y1="0" x2="1853.7931034482767" y2="88.27586206896552" stroke-linecap="square" stroke-width="5" stroke="#292828"/><line x1="1853.7931034482767" y1="88.27586206896552" x2="1942.0689655172423" y2="0" stroke-linecap="square" stroke-width="5" stroke="#292828"/><line x1="1942.0689655172423" y1="88.27586206896552" x2="2030.3448275862079" y2="0" stroke-linecap="square" stroke-width="5" stroke="#282828"/><line x1="2030.3448275862079" y1="0" x2="2118.6206896551735" y2="88.27586206896552" stroke-linecap="square" stroke-width="5" stroke="#282828"/><line x1="2118.6206896551735" y1="88.27586206896552" x2="2206.896551724139" y2="0" stroke-linecap="square" stroke-width="5" stroke="#282727"/><line x1="2206.896551724139" y1="0" x2="2295.1724137931046" y2="88.27586206896552" stroke-linecap="square" stroke-width="5" stroke="#272727"/><line x1="2295.1724137931046" y1="88.27586206896552" x2="2383.44827586207" y2="0" stroke-linecap="square" stroke-width="5" stroke="#272727"/><line x1="2383.44827586207" y1="0" x2="2471.724137931036" y2="88.27586206896552" stroke-linecap="square" stroke-width="5" stroke="#262626"/><line x1="2471.724137931036" y1="0" x2="2560.0000000000014" y2="88.27586206896552" stroke-linecap="square" stroke-width="5" stroke="#262626"/><line x1="0" y1="176.55172413793105" x2="88.27586206896552" y2="88.27586206896552" stroke-linecap="square" stroke-width="5" stroke="#322f2f"/><line x1="88.27586206896552" y1="88.27586206896552" x2="176.55172413793105" y2="176.55172413793105" stroke-linecap="square" stroke-width="5" stroke="#312e2e"/><line x1="176.55172413793105" y1="176.55172413793105" x2="264.82758620689657" y2="88.27586206896552" stroke-linecap="square" stroke-width="5" stroke="#312e2e"/><line x1="264.82758620689657" y1="176.55172413793105" x2="353.1034482758621" y2="88.27586206896552" stroke-linecap="square" stroke-width="5" stroke="#302e2e"/><line x1="353.1034482758621" y1="176.55172413793105" x2="441.3793103448276" y2="88.27586206896552" stroke-linecap="square" stroke-width="5" stroke="#302d2d"/><line x1="441.3793103448276" y1="176.55172413793105" x2="529.6551724137931" y2="88.27586206896552" stroke-linecap="square" stroke-width="5" stroke="#302d2d"/><line x1="529.6551724137931" y1="176.55172413793105" x2="617.9310344827586" y2="88.27586206896552" stroke-linecap="square" stroke-width="5" stroke="#2f2d2d"/><line x1="617.9310344827586" y1="88.27586206896552" x2="706.2068965517242" y2="176.55172413793105" stroke-linecap="square" stroke-width="5" stroke="#2f2d2d"/><line x1="706.2068965517242" y1="88.27586206896552" x2="794.4827586206898" y2="176.55172413793105" stroke-linecap="square" stroke-width="5" stroke="#2e2c2c"/><line x1="794.4827586206898" y1="176.55172413793105" x2="882.7586206896553" y2="88.27586206896552" stroke-linecap="square" stroke-width="5" stroke="#2e2c2c"/><line x1="882.7586206896553" y1="88.27586206896552" x2="971.0344827586209" y2="176.55172413793105" stroke-linecap="square" stroke-width="5" stroke="#2d2c2c"/><line x1="971.0344827586209" y1="88.27586206896552" x2="1059.3103448275865" y2="176.55172413793105" stroke-linecap="square" stroke-width="5" stroke="#2d2b2b"/><line x1="1059.3103448275865" y1="88.27586206896552" x2="1147.586206896552" y2="176.55172413793105" stroke-linecap="square" stroke-width="5" stroke="#2d2b2b"/><line x1="1147.586206896552" y1="88.27586206896552" x2="1235.8620689655177" y2="176.55172413793105" stroke-linecap="square" stroke-width="5" stroke="#2c2b2b"/><line x1="1235.8620689655177" y1="88.27586206896552" x2="1324.1379310344832" y2="176.55172413793105" stroke-linecap="square" stroke-width="5" stroke="#2c2a2a"/><line x1="1324.1379310344832" y1="88.27586206896552" x2="1412.4137931034488" y2="176.55172413793105" stroke-linecap="square" stroke-width="5" stroke="#2b2a2a"/><line x1="1412.4137931034488" y1="88.27586206896552" x2="1500.6896551724144" y2="176.55172413793105" stroke-linecap="square" stroke-width="5" stroke="#2b2a2a"/><line x1="1500.6896551724144" y1="176.55172413793105" x2="1588.96551724138" y2="88.27586206896552" stroke-linecap="square" stroke-width="5" stroke="#2b2929"/><line x1="1588.96551724138" y1="88.27586206896552" x2="1677.2413793103456" y2="176.55172413793105" stroke-linecap="square" stroke-width="5" stroke="#2a2929"/><line x1="1677.2413793103456" y1="88.27586206896552" x2="1765.5172413793111" y2="176.55172413793105" stroke-linecap="square" stroke-width="5" stroke="#2a2929"/><line x1="1765.5172413793111" y1="88.27586206896552" x2="1853.7931034482767" y2="176.55172413793105" stroke-linecap="square" stroke-width="5" stroke="#292828"/><line x1="1853.7931034482767" y1="176.55172413793105" x2="1942.0689655172423" y2="88.27586206896552" stroke-linecap="square" stroke-width="5" stroke="#292828"/><line x1="1942.0689655172423" y1="176.55172413793105" x2="2030.3448275862079" y2="88.27586206896552" stroke-linecap="square" stroke-width="5" stroke="#282828"/><line x1="2030.3448275862079" y1="176.55172413793105" x2="2118.6206896551735" y2="88.27586206896552" stroke-linecap="square" stroke-width="5" stroke="#282828"/><line x1="2118.6206896551735" y1="88.27586206896552" x2="2206.896551724139" y2="176.55172413793105" stroke-linecap="square" stroke-width="5" stroke="#282727"/><line x1="2206.896551724139" y1="176.55172413793105" x2="2295.1724137931046" y2="88.27586206896552" stroke-linecap="square" stroke-width="5" stroke="#272727"/><line x1="2295.1724137931046" y1="176.55172413793105" x2="2383.44827586207" y2="88.27586206896552" stroke-linecap="square" stroke-width="5" stroke="#272727"/><line x1="2383.44827586207" y1="176.55172413793105" x2="2471.724137931036" y2="88.27586206896552" stroke-linecap="square" stroke-width="5" stroke="#262626"/><line x1="2471.724137931036" y1="88.27586206896552" x2="2560.0000000000014" y2="176.55172413793105" stroke-linecap="square" stroke-width="5" stroke="#262626"/><line x1="0" y1="176.55172413793105" x2="88.27586206896552" y2="264.82758620689657" stroke-linecap="square" stroke-width="5" stroke="#322f2f"/><line x1="88.27586206896552" y1="176.55172413793105" x2="176.55172413793105" y2="264.82758620689657" stroke-linecap="square" stroke-width="5" stroke="#312e2e"/><line x1="176.55172413793105" y1="176.55172413793105" x2="264.82758620689657" y2="264.82758620689657" stroke-linecap="square" stroke-width="5" stroke="#312e2e"/><line x1="264.82758620689657" y1="176.55172413793105" x2="353.1034482758621" y2="264.82758620689657" stroke-linecap="square" stroke-width="5" stroke="#302e2e"/><line x1="353.1034482758621" y1="176.55172413793105" x2="441.3793103448276" y2="264.82758620689657" stroke-linecap="square" stroke-width="5" stroke="#302d2d"/><line x1="441.3793103448276" y1="264.82758620689657" x2="529.6551724137931" y2="176.55172413793105" stroke-linecap="square" stroke-width="5" stroke="#302d2d"/><line x1="529.6551724137931" y1="176.55172413793105" x2="617.9310344827586" y2="264.82758620689657" stroke-linecap="square" stroke-width="5" stroke="#2f2d2d"/><line x1="617.9310344827586" y1="176.55172413793105" x2="706.2068965517242" y2="264.82758620689657" stroke-linecap="square" stroke-width="5" stroke="#2f2d2d"/><line x1="706.2068965517242" y1="264.82758620689657" x2="794.4827586206898" y2="176.55172413793105" stroke-linecap="square" stroke-width="5" stroke="#2e2c2c"/><line x1="794.4827586206898" y1="176.55172413793105" x2="882.7586206896553" y2="264.82758620689657" stroke-linecap="square" stroke-width="5" stroke="#2e2c2c"/><line x1="882.7586206896553" y1="176.55172413793105" x2="971.0344827586209" y2="264.82758620689657" stroke-linecap="square" stroke-width="5" stroke="#2d2c2c"/><line x1="971.0344827586209" y1="264.82758620689657" x2="1059.3103448275865" y2="176.55172413793105" stroke-linecap="square" stroke-width="5" stroke="#2d2b2b"/><line x1="1059.3103448275865" y1="264.82758620689657" x2="1147.586206896552" y2="176.55172413793105" stroke-linecap="square" stroke-width="5" stroke="#2d2b2b"/><line x1="1147.586206896552" y1="264.82758620689657" x2="1235.8620689655177" y2="176.55172413793105" stroke-linecap="square" stroke-width="5" stroke="#2c2b2b"/><line x1="1235.8620689655177" y1="176.55172413793105" x2="1324.1379310344832" y2="264.82758620689657" stroke-linecap="square" stroke-width="5" stroke="#2c2a2a"/><line x1="1324.1379310344832" y1="264.82758620689657" x2="1412.4137931034488" y2="176.55172413793105" stroke-linecap="square" stroke-width="5" stroke="#2b2a2a"/><line x1="1412.4137931034488" y1="176.55172413793105" x2="1500.6896551724144" y2="264.82758620689657" stroke-linecap="square" stroke-width="5" stroke="#2b2a2a"/><line x1="1500.6896551724144" y1="176.55172413793105" x2="1588.96551724138" y2="264.82758620689657" stroke-linecap="square" stroke-width="5" stroke="#2b2929"/><line x1="1588.96551724138" y1="264.82758620689657" x2="1677.2413793103456" y2="176.55172413793105" stroke-linecap="square" stroke-width="5" stroke="#2a2929"/><line x1="1677.2413793103456" y1="264.82758620689657" x2="1765.5172413793111" y2="176.55172413793105" stroke-linecap="square" stroke-width="5" stroke="#2a2929"/><line x1="1765.5172413793111" y1="264.82758620689657" x2="1853.7931034482767" y2="176.55172413793105" stroke-linecap="square" stroke-width="5" stroke="#292828"/><line x1="1853.7931034482767" y1="176.55172413793105" x2="1942.0689655172423" y2="264.82758620689657" stroke-linecap="square" stroke-width="5" stroke="#292828"/><line x1="1942.0689655172423" y1="176.55172413793105" x2="2030.3448275862079" y2="264.82758620689657" stroke-linecap="square" stroke-width="5" stroke="#282828"/><line x1="2030.3448275862079" y1="176.55172413793105" x2="2118.6206896551735" y2="264.82758620689657" stroke-linecap="square" stroke-width="5" stroke="#282828"/><line x1="2118.6206896551735" y1="264.82758620689657" x2="2206.896551724139" y2="176.55172413793105" stroke-linecap="square" stroke-width="5" stroke="#282727"/><line x1="2206.896551724139" y1="176.55172413793105" x2="2295.1724137931046" y2="264.82758620689657" stroke-linecap="square" stroke-width="5" stroke="#272727"/><line x1="2295.1724137931046" y1="264.82758620689657" x2="2383.44827586207" y2="176.55172413793105" stroke-linecap="square" stroke-width="5" stroke="#272727"/><line x1="2383.44827586207" y1="264.82758620689657" x2="2471.724137931036" y2="176.55172413793105" stroke-linecap="square" stroke-width="5" stroke="#262626"/><line x1="2471.724137931036" y1="264.82758620689657" x2="2560.0000000000014" y2="176.55172413793105" stroke-linecap="square" stroke-width="5" stroke="#262626"/><line x1="0" y1="264.82758620689657" x2="88.27586206896552" y2="353.1034482758621" stroke-linecap="square" stroke-width="5" stroke="#322f2f"/><line x1="88.27586206896552" y1="353.1034482758621" x2="176.55172413793105" y2="264.82758620689657" stroke-linecap="square" stroke-width="5" stroke="#312e2e"/><line x1="176.55172413793105" y1="264.82758620689657" x2="264.82758620689657" y2="353.1034482758621" stroke-linecap="square" stroke-width="5" stroke="#312e2e"/><line x1="264.82758620689657" y1="353.1034482758621" x2="353.1034482758621" y2="264.82758620689657" stroke-linecap="square" stroke-width="5" stroke="#302e2e"/><line x1="353.1034482758621" y1="264.82758620689657" x2="441.3793103448276" y2="353.1034482758621" stroke-linecap="square" stroke-width="5" stroke="#302d2d"/><line x1="441.3793103448276" y1="264.82758620689657" x2="529.6551724137931" y2="353.1034482758621" stroke-linecap="square" stroke-width="5" stroke="#302d2d"/><line x1="529.6551724137931" y1="353.1034482758621" x2="617.9310344827586" y2="264.82758620689657" stroke-linecap="square" stroke-width="5" stroke="#2f2d2d"/><line x1="617.9310344827586" y1="353.1034482758621" x2="706.2068965517242" y2="264.82758620689657" stroke-linecap="square" stroke-width="5" stroke="#2f2d2d"/><line x1="706.2068965517242" y1="264.82758620689657" x2="794.4827586206898" y2="353.1034482758621" stroke-linecap="square" stroke-width="5" stroke="#2e2c2c"/><line x1="794.4827586206898" y1="264.82758620689657" x2="882.7586206896553" y2="353.1034482758621" stroke-linecap="square" stroke-width="5" stroke="#2e2c2c"/><line x1="882.7586206896553" y1="353.1034482758621" x2="971.0344827586209" y2="264.82758620689657" stroke-linecap="square" stroke-width="5" stroke="#2d2c2c"/><line x1="971.0344827586209" y1="264.82758620689657" x2="1059.3103448275865" y2="353.1034482758621" stroke-linecap="square" stroke-width="5" stroke="#2d2b2b"/><line x1="1059.3103448275865" y1="264.82758620689657" x2="1147.586206896552" y2="353.1034482758621" stroke-linecap="square" stroke-width="5" stroke="#2d2b2b"/><line x1="1147.586206896552" y1="353.1034482758621" x2="1235.8620689655177" y2="264.82758620689657" stroke-linecap="square" stroke-width="5" stroke="#2c2b2b"/><line x1="1235.8620689655177" y1="353.1034482758621" x2="1324.1379310344832" y2="264.82758620689657" stroke-linecap="square" stroke-width="5" stroke="#2c2a2a"/><line x1="1324.1379310344832" y1="264.82758620689657" x2="1412.4137931034488" y2="353.1034482758621" stroke-linecap="square" stroke-width="5" stroke="#2b2a2a"/><line x1="1412.4137931034488" y1="353.1034482758621" x2="1500.6896551724144" y2="264.82758620689657" stroke-linecap="square" stroke-width="5" stroke="#2b2a2a"/><line x1="1500.6896551724144" y1="353.1034482758621" x2="1588.96551724138" y2="264.82758620689657" stroke-linecap="square" stroke-width="5" stroke="#2b2929"/><line x1="1588.96551724138" y1="353.1034482758621" x2="1677.2413793103456" y2="264.82758620689657" stroke-linecap="square" stroke-width="5" stroke="#2a2929"/><line x1="1677.2413793103456" y1="264.82758620689657" x2="1765.5172413793111" y2="353.1034482758621" stroke-linecap="square" stroke-width="5" stroke="#2a2929"/><line x1="1765.5172413793111" y1="264.82758620689657" x2="1853.7931034482767" y2="353.1034482758621" stroke-linecap="square" stroke-width="5" stroke="#292828"/><line x1="1853.7931034482767" y1="264.82758620689657" x2="1942.0689655172423" y2="353.1034482758621" stroke-linecap="square" stroke-width="5" stroke="#292828"/><line x1="1942.0689655172423" y1="264.82758620689657" x2="2030.3448275862079" y2="353.1034482758621" stroke-linecap="square" stroke-width="5" stroke="#282828"/><line x1="2030.3448275862079" y1="353.1034482758621" x2="2118.6206896551735" y2="264.82758620689657" stroke-linecap="square" stroke-width="5" stroke="#282828"/><line x1="2118.6206896551735" y1="353.1034482758621" x2="2206.896551724139" y2="264.82758620689657" stroke-linecap="square" stroke-width="5" stroke="#282727"/><line x1="2206.896551724139" y1="264.82758620689657" x2="2295.1724137931046" y2="353.1034482758621" stroke-linecap="square" stroke-width="5" stroke="#272727"/><line x1="2295.1724137931046" y1="353.1034482758621" x2="2383.44827586207" y2="264.82758620689657" stroke-linecap="square" stroke-width="5" stroke="#272727"/><line x1="2383.44827586207" y1="353.1034482758621" x2="2471.724137931036" y2="264.82758620689657" stroke-linecap="square" stroke-width="5" stroke="#262626"/><line x1="2471.724137931036" y1="353.1034482758621" x2="2560.0000000000014" y2="264.82758620689657" stroke-linecap="square" stroke-width="5" stroke="#262626"/><line x1="0" y1="441.3793103448276" x2="88.27586206896552" y2="353.1034482758621" stroke-linecap="square" stroke-width="5" stroke="#322f2f"/><line x1="88.27586206896552" y1="353.1034482758621" x2="176.55172413793105" y2="441.3793103448276" stroke-linecap="square" stroke-width="5" stroke="#312e2e"/><line x1="176.55172413793105" y1="353.1034482758621" x2="264.82758620689657" y2="441.3793103448276" stroke-linecap="square" stroke-width="5" stroke="#312e2e"/><line x1="264.82758620689657" y1="353.1034482758621" x2="353.1034482758621" y2="441.3793103448276" stroke-linecap="square" stroke-width="5" stroke="#302e2e"/><line x1="353.1034482758621" y1="441.3793103448276" x2="441.3793103448276" y2="353.1034482758621" stroke-linecap="square" stroke-width="5" stroke="#302d2d"/><line x1="441.3793103448276" y1="441.3793103448276" x2="529.6551724137931" y2="353.1034482758621" stroke-linecap="square" stroke-width="5" stroke="#302d2d"/><line x1="529.6551724137931" y1="353.1034482758621" x2="617.9310344827586" y2="441.3793103448276" stroke-linecap="square" stroke-width="5" stroke="#2f2d2d"/><line x1="617.9310344827586" y1="441.3793103448276" x2="706.2068965517242" y2="353.1034482758621" stroke-linecap="square" stroke-width="5" stroke="#2f2d2d"/><line x1="706.2068965517242" y1="441.3793103448276" x2="794.4827586206898" y2="353.1034482758621" stroke-linecap="square" stroke-width="5" stroke="#2e2c2c"/><line x1="794.4827586206898" y1="441.3793103448276" x2="882.7586206896553" y2="353.1034482758621" stroke-linecap="square" stroke-width="5" stroke="#2e2c2c"/><line x1="882.7586206896553" y1="353.1034482758621" x2="971.0344827586209" y2="441.3793103448276" stroke-linecap="square" stroke-width="5" stroke="#2d2c2c"/><line x1="971.0344827586209" y1="353.1034482758621" x2="1059.3103448275865" y2="441.3793103448276" stroke-linecap="square" stroke-width="5" stroke="#2d2b2b"/><line x1="1059.3103448275865" y1="441.3793103448276" x2="1147.586206896552" y2="353.1034482758621" stroke-linecap="square" stroke-width="5" stroke="#2d2b2b"/><line x1="1147.586206896552" y1="353.1034482758621" x2="1235.8620689655177" y2="441.3793103448276" stroke-linecap="square" stroke-width="5" stroke="#2c2b2b"/><line x1="1235.8620689655177" y1="441.3793103448276" x2="1324.1379310344832" y2="353.1034482758621" stroke-linecap="square" stroke-width="5" stroke="#2c2a2a"/><line x1="1324.1379310344832" y1="353.1034482758621" x2="1412.4137931034488" y2="441.3793103448276" stroke-linecap="square" stroke-width="5" stroke="#2b2a2a"/><line x1="1412.4137931034488" y1="353.1034482758621" x2="1500.6896551724144" y2="441.3793103448276" stroke-linecap="square" stroke-width="5" stroke="#2b2a2a"/><line x1="1500.6896551724144" y1="441.3793103448276" x2="1588.96551724138" y2="353.1034482758621" stroke-linecap="square" stroke-width="5" stroke="#2b2929"/><line x1="1588.96551724138" y1="441.3793103448276" x2="1677.2413793103456" y2="353.1034482758621" stroke-linecap="square" stroke-width="5" stroke="#2a2929"/><line x1="1677.2413793103456" y1="353.1034482758621" x2="1765.5172413793111" y2="441.3793103448276" stroke-linecap="square" stroke-width="5" stroke="#2a2929"/><line x1="1765.5172413793111" y1="353.1034482758621" x2="1853.7931034482767" y2="441.3793103448276" stroke-linecap="square" stroke-width="5" stroke="#292828"/><line x1="1853.7931034482767" y1="353.1034482758621" x2="1942.0689655172423" y2="441.3793103448276" stroke-linecap="square" stroke-width="5" stroke="#292828"/><line x1="1942.0689655172423" y1="353.1034482758621" x2="2030.3448275862079" y2="441.3793103448276" stroke-linecap="square" stroke-width="5" stroke="#282828"/><line x1="2030.3448275862079" y1="441.3793103448276" x2="2118.6206896551735" y2="353.1034482758621" stroke-linecap="square" stroke-width="5" stroke="#282828"/><line x1="2118.6206896551735" y1="441.3793103448276" x2="2206.896551724139" y2="353.1034482758621" stroke-linecap="square" stroke-width="5" stroke="#282727"/><line x1="2206.896551724139" y1="441.3793103448276" x2="2295.1724137931046" y2="353.1034482758621" stroke-linecap="square" stroke-width="5" stroke="#272727"/><line x1="2295.1724137931046" y1="353.1034482758621" x2="2383.44827586207" y2="441.3793103448276" stroke-linecap="square" stroke-width="5" stroke="#272727"/><line x1="2383.44827586207" y1="353.1034482758621" x2="2471.724137931036" y2="441.3793103448276" stroke-linecap="square" stroke-width="5" stroke="#262626"/><line x1="2471.724137931036" y1="441.3793103448276" x2="2560.0000000000014" y2="353.1034482758621" stroke-linecap="square" stroke-width="5" stroke="#262626"/><line x1="0" y1="529.6551724137931" x2="88.27586206896552" y2="441.3793103448276" stroke-linecap="square" stroke-width="5" stroke="#322f2f"/><line x1="88.27586206896552" y1="529.6551724137931" x2="176.55172413793105" y2="441.3793103448276" stroke-linecap="square" stroke-width="5" stroke="#312e2e"/><line x1="176.55172413793105" y1="529.6551724137931" x2="264.82758620689657" y2="441.3793103448276" stroke-linecap="square" stroke-width="5" stroke="#312e2e"/><line x1="264.82758620689657" y1="529.6551724137931" x2="353.1034482758621" y2="441.3793103448276" stroke-linecap="square" stroke-width="5" stroke="#302e2e"/><line x1="353.1034482758621" y1="529.6551724137931" x2="441.3793103448276" y2="441.3793103448276" stroke-linecap="square" stroke-width="5" stroke="#302d2d"/><line x1="441.3793103448276" y1="441.3793103448276" x2="529.6551724137931" y2="529.6551724137931" stroke-linecap="square" stroke-width="5" stroke="#302d2d"/><line x1="529.6551724137931" y1="529.6551724137931" x2="617.9310344827586" y2="441.3793103448276" stroke-linecap="square" stroke-width="5" stroke="#2f2d2d"/><line x1="617.9310344827586" y1="441.3793103448276" x2="706.2068965517242" y2="529.6551724137931" stroke-linecap="square" stroke-width="5" stroke="#2f2d2d"/><line x1="706.2068965517242" y1="441.3793103448276" x2="794.4827586206898" y2="529.6551724137931" stroke-linecap="square" stroke-width="5" stroke="#2e2c2c"/><line x1="794.4827586206898" y1="441.3793103448276" x2="882.7586206896553" y2="529.6551724137931" stroke-linecap="square" stroke-width="5" stroke="#2e2c2c"/><line x1="882.7586206896553" y1="529.6551724137931" x2="971.0344827586209" y2="441.3793103448276" stroke-linecap="square" stroke-width="5" stroke="#2d2c2c"/><line x1="971.0344827586209" y1="441.3793103448276" x2="1059.3103448275865" y2="529.6551724137931" stroke-linecap="square" stroke-width="5" stroke="#2d2b2b"/><line x1="1059.3103448275865" y1="529.6551724137931" x2="1147.586206896552" y2="441.3793103448276" stroke-linecap="square" stroke-width="5" stroke="#2d2b2b"/><line x1="1147.586206896552" y1="441.3793103448276" x2="1235.8620689655177" y2="529.6551724137931" stroke-linecap="square" stroke-width="5" stroke="#2c2b2b"/><line x1="1235.8620689655177" y1="529.6551724137931" x2="1324.1379310344832" y2="441.3793103448276" stroke-linecap="square" stroke-width="5" stroke="#2c2a2a"/><line x1="1324.1379310344832" y1="529.6551724137931" x2="1412.4137931034488" y2="441.3793103448276" stroke-linecap="square" stroke-width="5" stroke="#2b2a2a"/><line x1="1412.4137931034488" y1="529.6551724137931" x2="1500.6896551724144" y2="441.3793103448276" stroke-linecap="square" stroke-width="5" stroke="#2b2a2a"/><line x1="1500.6896551724144" y1="441.3793103448276" x2="1588.96551724138" y2="529.6551724137931" stroke-linecap="square" stroke-width="5" stroke="#2b2929"/><line x1="1588.96551724138" y1="441.3793103448276" x2="1677.2413793103456" y2="529.6551724137931" stroke-linecap="square" stroke-width="5" stroke="#2a2929"/><line x1="1677.2413793103456" y1="529.6551724137931" x2="1765.5172413793111" y2="441.3793103448276" stroke-linecap="square" stroke-width="5" stroke="#2a2929"/><line x1="1765.5172413793111" y1="529.6551724137931" x2="1853.7931034482767" y2="441.3793103448276" stroke-linecap="square" stroke-width="5" stroke="#292828"/><line x1="1853.7931034482767" y1="529.6551724137931" x2="1942.0689655172423" y2="441.3793103448276" stroke-linecap="square" stroke-width="5" stroke="#292828"/><line x1="1942.0689655172423" y1="441.3793103448276" x2="2030.3448275862079" y2="529.6551724137931" stroke-linecap="square" stroke-width="5" stroke="#282828"/><line x1="2030.3448275862079" y1="529.6551724137931" x2="2118.6206896551735" y2="441.3793103448276" stroke-linecap="square" stroke-width="5" stroke="#282828"/><line x1="2118.6206896551735" y1="529.6551724137931" x2="2206.896551724139" y2="441.3793103448276" stroke-linecap="square" stroke-width="5" stroke="#282727"/><line x1="2206.896551724139" y1="441.3793103448276" x2="2295.1724137931046" y2="529.6551724137931" stroke-linecap="square" stroke-width="5" stroke="#272727"/><line x1="2295.1724137931046" y1="529.6551724137931" x2="2383.44827586207" y2="441.3793103448276" stroke-linecap="square" stroke-width="5" stroke="#272727"/><line x1="2383.44827586207" y1="441.3793103448276" x2="2471.724137931036" y2="529.6551724137931" stroke-linecap="square" stroke-width="5" stroke="#262626"/><line x1="2471.724137931036" y1="441.3793103448276" x2="2560.0000000000014" y2="529.6551724137931" stroke-linecap="square" stroke-width="5" stroke="#262626"/><line x1="0" y1="617.9310344827586" x2="88.27586206896552" y2="529.6551724137931" stroke-linecap="square" stroke-width="5" stroke="#322f2f"/><line x1="88.27586206896552" y1="617.9310344827586" x2="176.55172413793105" y2="529.6551724137931" stroke-linecap="square" stroke-width="5" stroke="#312e2e"/><line x1="176.55172413793105" y1="617.9310344827586" x2="264.82758620689657" y2="529.6551724137931" stroke-linecap="square" stroke-width="5" stroke="#312e2e"/><line x1="264.82758620689657" y1="529.6551724137931" x2="353.1034482758621" y2="617.9310344827586" stroke-linecap="square" stroke-width="5" stroke="#302e2e"/><line x1="353.1034482758621" y1="617.9310344827586" x2="441.3793103448276" y2="529.6551724137931" stroke-linecap="square" stroke-width="5" stroke="#302d2d"/><line x1="441.3793103448276" y1="529.6551724137931" x2="529.6551724137931" y2="617.9310344827586" stroke-linecap="square" stroke-width="5" stroke="#302d2d"/><line x1="529.6551724137931" y1="617.9310344827586" x2="617.9310344827586" y2="529.6551724137931" stroke-linecap="square" stroke-width="5" stroke="#2f2d2d"/><line x1="617.9310344827586" y1="529.6551724137931" x2="706.2068965517242" y2="617.9310344827586" stroke-linecap="square" stroke-width="5" stroke="#2f2d2d"/><line x1="706.2068965517242" y1="529.6551724137931" x2="794.4827586206898" y2="617.9310344827586" stroke-linecap="square" stroke-width="5" stroke="#2e2c2c"/><line x1="794.4827586206898" y1="529.6551724137931" x2="882.7586206896553" y2="617.9310344827586" stroke-linecap="square" stroke-width="5" stroke="#2e2c2c"/><line x1="882.7586206896553" y1="617.9310344827586" x2="971.0344827586209" y2="529.6551724137931" stroke-linecap="square" stroke-width="5" stroke="#2d2c2c"/><line x1="971.0344827586209" y1="529.6551724137931" x2="1059.3103448275865" y2="617.9310344827586" stroke-linecap="square" stroke-width="5" stroke="#2d2b2b"/><line x1="1059.3103448275865" y1="617.9310344827586" x2="1147.586206896552" y2="529.6551724137931" stroke-linecap="square" stroke-width="5" stroke="#2d2b2b"/><line x1="1147.586206896552" y1="529.6551724137931" x2="1235.8620689655177" y2="617.9310344827586" stroke-linecap="square" stroke-width="5" stroke="#2c2b2b"/><line x1="1235.8620689655177" y1="617.9310344827586" x2="1324.1379310344832" y2="529.6551724137931" stroke-linecap="square" stroke-width="5" stroke="#2c2a2a"/><line x1="1324.1379310344832" y1="529.6551724137931" x2="1412.4137931034488" y2="617.9310344827586" stroke-linecap="square" stroke-width="5" stroke="#2b2a2a"/><line x1="1412.4137931034488" y1="617.9310344827586" x2="1500.6896551724144" y2="529.6551724137931" stroke-linecap="square" stroke-width="5" stroke="#2b2a2a"/><line x1="1500.6896551724144" y1="529.6551724137931" x2="1588.96551724138" y2="617.9310344827586" stroke-linecap="square" stroke-width="5" stroke="#2b2929"/><line x1="1588.96551724138" y1="529.6551724137931" x2="1677.2413793103456" y2="617.9310344827586" stroke-linecap="square" stroke-width="5" stroke="#2a2929"/><line x1="1677.2413793103456" y1="617.9310344827586" x2="1765.5172413793111" y2="529.6551724137931" stroke-linecap="square" stroke-width="5" stroke="#2a2929"/><line x1="1765.5172413793111" y1="617.9310344827586" x2="1853.7931034482767" y2="529.6551724137931" stroke-linecap="square" stroke-width="5" stroke="#292828"/><line x1="1853.7931034482767" y1="617.9310344827586" x2="1942.0689655172423" y2="529.6551724137931" stroke-linecap="square" stroke-width="5" stroke="#292828"/><line x1="1942.0689655172423" y1="617.9310344827586" x2="2030.3448275862079" y2="529.6551724137931" stroke-linecap="square" stroke-width="5" stroke="#282828"/><line x1="2030.3448275862079" y1="529.6551724137931" x2="2118.6206896551735" y2="617.9310344827586" stroke-linecap="square" stroke-width="5" stroke="#282828"/><line x1="2118.6206896551735" y1="617.9310344827586" x2="2206.896551724139" y2="529.6551724137931" stroke-linecap="square" stroke-width="5" stroke="#282727"/><line x1="2206.896551724139" y1="617.9310344827586" x2="2295.1724137931046" y2="529.6551724137931" stroke-linecap="square" stroke-width="5" stroke="#272727"/><line x1="2295.1724137931046" y1="529.6551724137931" x2="2383.44827586207" y2="617.9310344827586" stroke-linecap="square" stroke-width="5" stroke="#272727"/><line x1="2383.44827586207" y1="617.9310344827586" x2="2471.724137931036" y2="529.6551724137931" stroke-linecap="square" stroke-width="5" stroke="#262626"/><line x1="2471.724137931036" y1="529.6551724137931" x2="2560.0000000000014" y2="617.9310344827586" stroke-linecap="square" stroke-width="5" stroke="#262626"/><line x1="0" y1="706.2068965517242" x2="88.27586206896552" y2="617.9310344827586" stroke-linecap="square" stroke-width="5" stroke="#322f2f"/><line x1="88.27586206896552" y1="706.2068965517242" x2="176.55172413793105" y2="617.9310344827586" stroke-linecap="square" stroke-width="5" stroke="#312e2e"/><line x1="176.55172413793105" y1="706.2068965517242" x2="264.82758620689657" y2="617.9310344827586" stroke-linecap="square" stroke-width="5" stroke="#312e2e"/><line x1="264.82758620689657" y1="706.2068965517242" x2="353.1034482758621" y2="617.9310344827586" stroke-linecap="square" stroke-width="5" stroke="#302e2e"/><line x1="353.1034482758621" y1="617.9310344827586" x2="441.3793103448276" y2="706.2068965517242" stroke-linecap="square" stroke-width="5" stroke="#302d2d"/><line x1="441.3793103448276" y1="617.9310344827586" x2="529.6551724137931" y2="706.2068965517242" stroke-linecap="square" stroke-width="5" stroke="#302d2d"/><line x1="529.6551724137931" y1="617.9310344827586" x2="617.9310344827586" y2="706.2068965517242" stroke-linecap="square" stroke-width="5" stroke="#2f2d2d"/><line x1="617.9310344827586" y1="617.9310344827586" x2="706.2068965517242" y2="706.2068965517242" stroke-linecap="square" stroke-width="5" stroke="#2f2d2d"/><line x1="706.2068965517242" y1="617.9310344827586" x2="794.4827586206898" y2="706.2068965517242" stroke-linecap="square" stroke-width="5" stroke="#2e2c2c"/><line x1="794.4827586206898" y1="706.2068965517242" x2="882.7586206896553" y2="617.9310344827586" stroke-linecap="square" stroke-width="5" stroke="#2e2c2c"/><line x1="882.7586206896553" y1="706.2068965517242" x2="971.0344827586209" y2="617.9310344827586" stroke-linecap="square" stroke-width="5" stroke="#2d2c2c"/><line x1="971.0344827586209" y1="706.2068965517242" x2="1059.3103448275865" y2="617.9310344827586" stroke-linecap="square" stroke-width="5" stroke="#2d2b2b"/><line x1="1059.3103448275865" y1="617.9310344827586" x2="1147.586206896552" y2="706.2068965517242" stroke-linecap="square" stroke-width="5" stroke="#2d2b2b"/><line x1="1147.586206896552" y1="706.2068965517242" x2="1235.8620689655177" y2="617.9310344827586" stroke-linecap="square" stroke-width="5" stroke="#2c2b2b"/><line x1="1235.8620689655177" y1="706.2068965517242" x2="1324.1379310344832" y2="617.9310344827586" stroke-linecap="square" stroke-width="5" stroke="#2c2a2a"/><line x1="1324.1379310344832" y1="706.2068965517242" x2="1412.4137931034488" y2="617.9310344827586" stroke-linecap="square" stroke-width="5" stroke="#2b2a2a"/><line x1="1412.4137931034488" y1="706.2068965517242" x2="1500.6896551724144" y2="617.9310344827586" stroke-linecap="square" stroke-width="5" stroke="#2b2a2a"/><line x1="1500.6896551724144" y1="706.2068965517242" x2="1588.96551724138" y2="617.9310344827586" stroke-linecap="square" stroke-width="5" stroke="#2b2929"/><line x1="1588.96551724138" y1="617.9310344827586" x2="1677.2413793103456" y2="706.2068965517242" stroke-linecap="square" stroke-width="5" stroke="#2a2929"/><line x1="1677.2413793103456" y1="706.2068965517242" x2="1765.5172413793111" y2="617.9310344827586" stroke-linecap="square" stroke-width="5" stroke="#2a2929"/><line x1="1765.5172413793111" y1="706.2068965517242" x2="1853.7931034482767" y2="617.9310344827586" stroke-linecap="square" stroke-width="5" stroke="#292828"/><line x1="1853.7931034482767" y1="617.9310344827586" x2="1942.0689655172423" y2="706.2068965517242" stroke-linecap="square" stroke-width="5" stroke="#292828"/><line x1="1942.0689655172423" y1="706.2068965517242" x2="2030.3448275862079" y2="617.9310344827586" stroke-linecap="square" stroke-width="5" stroke="#282828"/><line x1="2030.3448275862079" y1="617.9310344827586" x2="2118.6206896551735" y2="706.2068965517242" stroke-linecap="square" stroke-width="5" stroke="#282828"/><line x1="2118.6206896551735" y1="617.9310344827586" x2="2206.896551724139" y2="706.2068965517242" stroke-linecap="square" stroke-width="5" stroke="#282727"/><line x1="2206.896551724139" y1="706.2068965517242" x2="2295.1724137931046" y2="617.9310344827586" stroke-linecap="square" stroke-width="5" stroke="#272727"/><line x1="2295.1724137931046" y1="706.2068965517242" x2="2383.44827586207" y2="617.9310344827586" stroke-linecap="square" stroke-width="5" stroke="#272727"/><line x1="2383.44827586207" y1="617.9310344827586" x2="2471.724137931036" y2="706.2068965517242" stroke-linecap="square" stroke-width="5" stroke="#262626"/><line x1="2471.724137931036" y1="706.2068965517242" x2="2560.0000000000014" y2="617.9310344827586" stroke-linecap="square" stroke-width="5" stroke="#262626"/><line x1="0" y1="794.4827586206898" x2="88.27586206896552" y2="706.2068965517242" stroke-linecap="square" stroke-width="5" stroke="#322f2f"/><line x1="88.27586206896552" y1="794.4827586206898" x2="176.55172413793105" y2="706.2068965517242" stroke-linecap="square" stroke-width="5" stroke="#312e2e"/><line x1="176.55172413793105" y1="794.4827586206898" x2="264.82758620689657" y2="706.2068965517242" stroke-linecap="square" stroke-width="5" stroke="#312e2e"/><line x1="264.82758620689657" y1="794.4827586206898" x2="353.1034482758621" y2="706.2068965517242" stroke-linecap="square" stroke-width="5" stroke="#302e2e"/><line x1="353.1034482758621" y1="794.4827586206898" x2="441.3793103448276" y2="706.2068965517242" stroke-linecap="square" stroke-width="5" stroke="#302d2d"/><line x1="441.3793103448276" y1="794.4827586206898" x2="529.6551724137931" y2="706.2068965517242" stroke-linecap="square" stroke-width="5" stroke="#302d2d"/><line x1="529.6551724137931" y1="706.2068965517242" x2="617.9310344827586" y2="794.4827586206898" stroke-linecap="square" stroke-width="5" stroke="#2f2d2d"/><line x1="617.9310344827586" y1="706.2068965517242" x2="706.2068965517242" y2="794.4827586206898" stroke-linecap="square" stroke-width="5" stroke="#2f2d2d"/><line x1="706.2068965517242" y1="794.4827586206898" x2="794.4827586206898" y2="706.2068965517242" stroke-linecap="square" stroke-width="5" stroke="#2e2c2c"/><line x1="794.4827586206898" y1="706.2068965517242" x2="882.7586206896553" y2="794.4827586206898" stroke-linecap="square" stroke-width="5" stroke="#2e2c2c"/><line x1="882.7586206896553" y1="794.4827586206898" x2="971.0344827586209" y2="706.2068965517242" stroke-linecap="square" stroke-width="5" stroke="#2d2c2c"/><line x1="971.0344827586209" y1="706.2068965517242" x2="1059.3103448275865" y2="794.4827586206898" stroke-linecap="square" stroke-width="5" stroke="#2d2b2b"/><line x1="1059.3103448275865" y1="794.4827586206898" x2="1147.586206896552" y2="706.2068965517242" stroke-linecap="square" stroke-width="5" stroke="#2d2b2b"/><line x1="1147.586206896552" y1="794.4827586206898" x2="1235.8620689655177" y2="706.2068965517242" stroke-linecap="square" stroke-width="5" stroke="#2c2b2b"/><line x1="1235.8620689655177" y1="794.4827586206898" x2="1324.1379310344832" y2="706.2068965517242" stroke-linecap="square" stroke-width="5" stroke="#2c2a2a"/><line x1="1324.1379310344832" y1="706.2068965517242" x2="1412.4137931034488" y2="794.4827586206898" stroke-linecap="square" stroke-width="5" stroke="#2b2a2a"/><line x1="1412.4137931034488" y1="706.2068965517242" x2="1500.6896551724144" y2="794.4827586206898" stroke-linecap="square" stroke-width="5" stroke="#2b2a2a"/><line x1="1500.6896551724144" y1="706.2068965517242" x2="1588.96551724138" y2="794.4827586206898" stroke-linecap="square" stroke-width="5" stroke="#2b2929"/><line x1="1588.96551724138" y1="706.2068965517242" x2="1677.2413793103456" y2="794.4827586206898" stroke-linecap="square" stroke-width="5" stroke="#2a2929"/><line x1="1677.2413793103456" y1="794.4827586206898" x2="1765.5172413793111" y2="706.2068965517242" stroke-linecap="square" stroke-width="5" stroke="#2a2929"/><line x1="1765.5172413793111" y1="794.4827586206898" x2="1853.7931034482767" y2="706.2068965517242" stroke-linecap="square" stroke-width="5" stroke="#292828"/><line x1="1853.7931034482767" y1="706.2068965517242" x2="1942.0689655172423" y2="794.4827586206898" stroke-linecap="square" stroke-width="5" stroke="#292828"/><line x1="1942.0689655172423" y1="794.4827586206898" x2="2030.3448275862079" y2="706.2068965517242" stroke-linecap="square" stroke-width="5" stroke="#282828"/><line x1="2030.3448275862079" y1="706.2068965517242" x2="2118.6206896551735" y2="794.4827586206898" stroke-linecap="square" stroke-width="5" stroke="#282828"/><line x1="2118.6206896551735" y1="706.2068965517242" x2="2206.896551724139" y2="794.4827586206898" stroke-linecap="square" stroke-width="5" stroke="#282727"/><line x1="2206.896551724139" y1="794.4827586206898" x2="2295.1724137931046" y2="706.2068965517242" stroke-linecap="square" stroke-width="5" stroke="#272727"/><line x1="2295.1724137931046" y1="706.2068965517242" x2="2383.44827586207" y2="794.4827586206898" stroke-linecap="square" stroke-width="5" stroke="#272727"/><line x1="2383.44827586207" y1="706.2068965517242" x2="2471.724137931036" y2="794.4827586206898" stroke-linecap="square" stroke-width="5" stroke="#262626"/><line x1="2471.724137931036" y1="794.4827586206898" x2="2560.0000000000014" y2="706.2068965517242" stroke-linecap="square" stroke-width="5" stroke="#262626"/><line x1="0" y1="794.4827586206898" x2="88.27586206896552" y2="882.7586206896553" stroke-linecap="square" stroke-width="5" stroke="#322f2f"/><line x1="88.27586206896552" y1="882.7586206896553" x2="176.55172413793105" y2="794.4827586206898" stroke-linecap="square" stroke-width="5" stroke="#312e2e"/><line x1="176.55172413793105" y1="882.7586206896553" x2="264.82758620689657" y2="794.4827586206898" stroke-linecap="square" stroke-width="5" stroke="#312e2e"/><line x1="264.82758620689657" y1="794.4827586206898" x2="353.1034482758621" y2="882.7586206896553" stroke-linecap="square" stroke-width="5" stroke="#302e2e"/><line x1="353.1034482758621" y1="794.4827586206898" x2="441.3793103448276" y2="882.7586206896553" stroke-linecap="square" stroke-width="5" stroke="#302d2d"/><line x1="441.3793103448276" y1="794.4827586206898" x2="529.6551724137931" y2="882.7586206896553" stroke-linecap="square" stroke-width="5" stroke="#302d2d"/><line x1="529.6551724137931" y1="794.4827586206898" x2="617.9310344827586" y2="882.7586206896553" stroke-linecap="square" stroke-width="5" stroke="#2f2d2d"/><line x1="617.9310344827586" y1="794.4827586206898" x2="706.2068965517242" y2="882.7586206896553" stroke-linecap="square" stroke-width="5" stroke="#2f2d2d"/><line x1="706.2068965517242" y1="794.4827586206898" x2="794.4827586206898" y2="882.7586206896553" stroke-linecap="square" stroke-width="5" stroke="#2e2c2c"/><line x1="794.4827586206898" y1="794.4827586206898" x2="882.7586206896553" y2="882.7586206896553" stroke-linecap="square" stroke-width="5" stroke="#2e2c2c"/><line x1="882.7586206896553" y1="794.4827586206898" x2="971.0344827586209" y2="882.7586206896553" stroke-linecap="square" stroke-width="5" stroke="#2d2c2c"/><line x1="971.0344827586209" y1="794.4827586206898" x2="1059.3103448275865" y2="882.7586206896553" stroke-linecap="square" stroke-width="5" stroke="#2d2b2b"/><line x1="1059.3103448275865" y1="882.7586206896553" x2="1147.586206896552" y2="794.4827586206898" stroke-linecap="square" stroke-width="5" stroke="#2d2b2b"/><line x1="1147.586206896552" y1="882.7586206896553" x2="1235.8620689655177" y2="794.4827586206898" stroke-linecap="square" stroke-width="5" stroke="#2c2b2b"/><line x1="1235.8620689655177" y1="794.4827586206898" x2="1324.1379310344832" y2="882.7586206896553" stroke-linecap="square" stroke-width="5" stroke="#2c2a2a"/><line x1="1324.1379310344832" y1="794.4827586206898" x2="1412.4137931034488" y2="882.7586206896553" stroke-linecap="square" stroke-width="5" stroke="#2b2a2a"/><line x1="1412.4137931034488" y1="882.7586206896553" x2="1500.6896551724144" y2="794.4827586206898" stroke-linecap="square" stroke-width="5" stroke="#2b2a2a"/><line x1="1500.6896551724144" y1="794.4827586206898" x2="1588.96551724138" y2="882.7586206896553" stroke-linecap="square" stroke-width="5" stroke="#2b2929"/><line x1="1588.96551724138" y1="794.4827586206898" x2="1677.2413793103456" y2="882.7586206896553" stroke-linecap="square" stroke-width="5" stroke="#2a2929"/><line x1="1677.2413793103456" y1="882.7586206896553" x2="1765.5172413793111" y2="794.4827586206898" stroke-linecap="square" stroke-width="5" stroke="#2a2929"/><line x1="1765.5172413793111" y1="882.7586206896553" x2="1853.7931034482767" y2="794.4827586206898" stroke-linecap="square" stroke-width="5" stroke="#292828"/><line x1="1853.7931034482767" y1="794.4827586206898" x2="1942.0689655172423" y2="882.7586206896553" stroke-linecap="square" stroke-width="5" stroke="#292828"/><line x1="1942.0689655172423" y1="882.7586206896553" x2="2030.3448275862079" y2="794.4827586206898" stroke-linecap="square" stroke-width="5" stroke="#282828"/><line x1="2030.3448275862079" y1="882.7586206896553" x2="2118.6206896551735" y2="794.4827586206898" stroke-linecap="square" stroke-width="5" stroke="#282828"/><line x1="2118.6206896551735" y1="794.4827586206898" x2="2206.896551724139" y2="882.7586206896553" stroke-linecap="square" stroke-width="5" stroke="#282727"/><line x1="2206.896551724139" y1="794.4827586206898" x2="2295.1724137931046" y2="882.7586206896553" stroke-linecap="square" stroke-width="5" stroke="#272727"/><line x1="2295.1724137931046" y1="882.7586206896553" x2="2383.44827586207" y2="794.4827586206898" stroke-linecap="square" stroke-width="5" stroke="#272727"/><line x1="2383.44827586207" y1="882.7586206896553" x2="2471.724137931036" y2="794.4827586206898" stroke-linecap="square" stroke-width="5" stroke="#262626"/><line x1="2471.724137931036" y1="794.4827586206898" x2="2560.0000000000014" y2="882.7586206896553" stroke-linecap="square" stroke-width="5" stroke="#262626"/><line x1="0" y1="971.0344827586209" x2="88.27586206896552" y2="882.7586206896553" stroke-linecap="square" stroke-width="5" stroke="#322f2f"/><line x1="88.27586206896552" y1="882.7586206896553" x2="176.55172413793105" y2="971.0344827586209" stroke-linecap="square" stroke-width="5" stroke="#312e2e"/><line x1="176.55172413793105" y1="882.7586206896553" x2="264.82758620689657" y2="971.0344827586209" stroke-linecap="square" stroke-width="5" stroke="#312e2e"/><line x1="264.82758620689657" y1="971.0344827586209" x2="353.1034482758621" y2="882.7586206896553" stroke-linecap="square" stroke-width="5" stroke="#302e2e"/><line x1="353.1034482758621" y1="971.0344827586209" x2="441.3793103448276" y2="882.7586206896553" stroke-linecap="square" stroke-width="5" stroke="#302d2d"/><line x1="441.3793103448276" y1="882.7586206896553" x2="529.6551724137931" y2="971.0344827586209" stroke-linecap="square" stroke-width="5" stroke="#302d2d"/><line x1="529.6551724137931" y1="971.0344827586209" x2="617.9310344827586" y2="882.7586206896553" stroke-linecap="square" stroke-width="5" stroke="#2f2d2d"/><line x1="617.9310344827586" y1="882.7586206896553" x2="706.2068965517242" y2="971.0344827586209" stroke-linecap="square" stroke-width="5" stroke="#2f2d2d"/><line x1="706.2068965517242" y1="971.0344827586209" x2="794.4827586206898" y2="882.7586206896553" stroke-linecap="square" stroke-width="5" stroke="#2e2c2c"/><line x1="794.4827586206898" y1="971.0344827586209" x2="882.7586206896553" y2="882.7586206896553" stroke-linecap="square" stroke-width="5" stroke="#2e2c2c"/><line x1="882.7586206896553" y1="971.0344827586209" x2="971.0344827586209" y2="882.7586206896553" stroke-linecap="square" stroke-width="5" stroke="#2d2c2c"/><line x1="971.0344827586209" y1="971.0344827586209" x2="1059.3103448275865" y2="882.7586206896553" stroke-linecap="square" stroke-width="5" stroke="#2d2b2b"/><line x1="1059.3103448275865" y1="971.0344827586209" x2="1147.586206896552" y2="882.7586206896553" stroke-linecap="square" stroke-width="5" stroke="#2d2b2b"/><line x1="1147.586206896552" y1="882.7586206896553" x2="1235.8620689655177" y2="971.0344827586209" stroke-linecap="square" stroke-width="5" stroke="#2c2b2b"/><line x1="1235.8620689655177" y1="882.7586206896553" x2="1324.1379310344832" y2="971.0344827586209" stroke-linecap="square" stroke-width="5" stroke="#2c2a2a"/><line x1="1324.1379310344832" y1="971.0344827586209" x2="1412.4137931034488" y2="882.7586206896553" stroke-linecap="square" stroke-width="5" stroke="#2b2a2a"/><line x1="1412.4137931034488" y1="882.7586206896553" x2="1500.6896551724144" y2="971.0344827586209" stroke-linecap="square" stroke-width="5" stroke="#2b2a2a"/><line x1="1500.6896551724144" y1="882.7586206896553" x2="1588.96551724138" y2="971.0344827586209" stroke-linecap="square" stroke-width="5" stroke="#2b2929"/><line x1="1588.96551724138" y1="971.0344827586209" x2="1677.2413793103456" y2="882.7586206896553" stroke-linecap="square" stroke-width="5" stroke="#2a2929"/><line x1="1677.2413793103456" y1="882.7586206896553" x2="1765.5172413793111" y2="971.0344827586209" stroke-linecap="square" stroke-width="5" stroke="#2a2929"/><line x1="1765.5172413793111" y1="971.0344827586209" x2="1853.7931034482767" y2="882.7586206896553" stroke-linecap="square" stroke-width="5" stroke="#292828"/><line x1="1853.7931034482767" y1="882.7586206896553" x2="1942.0689655172423" y2="971.0344827586209" stroke-linecap="square" stroke-width="5" stroke="#292828"/><line x1="1942.0689655172423" y1="882.7586206896553" x2="2030.3448275862079" y2="971.0344827586209" stroke-linecap="square" stroke-width="5" stroke="#282828"/><line x1="2030.3448275862079" y1="882.7586206896553" x2="2118.6206896551735" y2="971.0344827586209" stroke-linecap="square" stroke-width="5" stroke="#282828"/><line x1="2118.6206896551735" y1="971.0344827586209" x2="2206.896551724139" y2="882.7586206896553" stroke-linecap="square" stroke-width="5" stroke="#282727"/><line x1="2206.896551724139" y1="971.0344827586209" x2="2295.1724137931046" y2="882.7586206896553" stroke-linecap="square" stroke-width="5" stroke="#272727"/><line x1="2295.1724137931046" y1="971.0344827586209" x2="2383.44827586207" y2="882.7586206896553" stroke-linecap="square" stroke-width="5" stroke="#272727"/><line x1="2383.44827586207" y1="882.7586206896553" x2="2471.724137931036" y2="971.0344827586209" stroke-linecap="square" stroke-width="5" stroke="#262626"/><line x1="2471.724137931036" y1="882.7586206896553" x2="2560.0000000000014" y2="971.0344827586209" stroke-linecap="square" stroke-width="5" stroke="#262626"/><line x1="0" y1="971.0344827586209" x2="88.27586206896552" y2="1059.3103448275865" stroke-linecap="square" stroke-width="5" stroke="#322f2f"/><line x1="88.27586206896552" y1="1059.3103448275865" x2="176.55172413793105" y2="971.0344827586209" stroke-linecap="square" stroke-width="5" stroke="#312e2e"/><line x1="176.55172413793105" y1="1059.3103448275865" x2="264.82758620689657" y2="971.0344827586209" stroke-linecap="square" stroke-width="5" stroke="#312e2e"/><line x1="264.82758620689657" y1="1059.3103448275865" x2="353.1034482758621" y2="971.0344827586209" stroke-linecap="square" stroke-width="5" stroke="#302e2e"/><line x1="353.1034482758621" y1="1059.3103448275865" x2="441.3793103448276" y2="971.0344827586209" stroke-linecap="square" stroke-width="5" stroke="#302d2d"/><line x1="441.3793103448276" y1="971.0344827586209" x2="529.6551724137931" y2="1059.3103448275865" stroke-linecap="square" stroke-width="5" stroke="#302d2d"/><line x1="529.6551724137931" y1="1059.3103448275865" x2="617.9310344827586" y2="971.0344827586209" stroke-linecap="square" stroke-width="5" stroke="#2f2d2d"/><line x1="617.9310344827586" y1="1059.3103448275865" x2="706.2068965517242" y2="971.0344827586209" stroke-linecap="square" stroke-width="5" stroke="#2f2d2d"/><line x1="706.2068965517242" y1="1059.3103448275865" x2="794.4827586206898" y2="971.0344827586209" stroke-linecap="square" stroke-width="5" stroke="#2e2c2c"/><line x1="794.4827586206898" y1="971.0344827586209" x2="882.7586206896553" y2="1059.3103448275865" stroke-linecap="square" stroke-width="5" stroke="#2e2c2c"/><line x1="882.7586206896553" y1="1059.3103448275865" x2="971.0344827586209" y2="971.0344827586209" stroke-linecap="square" stroke-width="5" stroke="#2d2c2c"/><line x1="971.0344827586209" y1="971.0344827586209" x2="1059.3103448275865" y2="1059.3103448275865" stroke-linecap="square" stroke-width="5" stroke="#2d2b2b"/><line x1="1059.3103448275865" y1="1059.3103448275865" x2="1147.586206896552" y2="971.0344827586209" stroke-linecap="square" stroke-width="5" stroke="#2d2b2b"/><line x1="1147.586206896552" y1="971.0344827586209" x2="1235.8620689655177" y2="1059.3103448275865" stroke-linecap="square" stroke-width="5" stroke="#2c2b2b"/><line x1="1235.8620689655177" y1="971.0344827586209" x2="1324.1379310344832" y2="1059.3103448275865" stroke-linecap="square" stroke-width="5" stroke="#2c2a2a"/><line x1="1324.1379310344832" y1="1059.3103448275865" x2="1412.4137931034488" y2="971.0344827586209" stroke-linecap="square" stroke-width="5" stroke="#2b2a2a"/><line x1="1412.4137931034488" y1="971.0344827586209" x2="1500.6896551724144" y2="1059.3103448275865" stroke-linecap="square" stroke-width="5" stroke="#2b2a2a"/><line x1="1500.6896551724144" y1="971.0344827586209" x2="1588.96551724138" y2="1059.3103448275865" stroke-linecap="square" stroke-width="5" stroke="#2b2929"/><line x1="1588.96551724138" y1="971.0344827586209" x2="1677.2413793103456" y2="1059.3103448275865" stroke-linecap="square" stroke-width="5" stroke="#2a2929"/><line x1="1677.2413793103456" y1="971.0344827586209" x2="1765.5172413793111" y2="1059.3103448275865" stroke-linecap="square" stroke-width="5" stroke="#2a2929"/><line x1="1765.5172413793111" y1="1059.3103448275865" x2="1853.7931034482767" y2="971.0344827586209" stroke-linecap="square" stroke-width="5" stroke="#292828"/><line x1="1853.7931034482767" y1="971.0344827586209" x2="1942.0689655172423" y2="1059.3103448275865" stroke-linecap="square" stroke-width="5" stroke="#292828"/><line x1="1942.0689655172423" y1="1059.3103448275865" x2="2030.3448275862079" y2="971.0344827586209" stroke-linecap="square" stroke-width="5" stroke="#282828"/><line x1="2030.3448275862079" y1="1059.3103448275865" x2="2118.6206896551735" y2="971.0344827586209" stroke-linecap="square" stroke-width="5" stroke="#282828"/><line x1="2118.6206896551735" y1="1059.3103448275865" x2="2206.896551724139" y2="971.0344827586209" stroke-linecap="square" stroke-width="5" stroke="#282727"/><line x1="2206.896551724139" y1="1059.3103448275865" x2="2295.1724137931046" y2="971.0344827586209" stroke-linecap="square" stroke-width="5" stroke="#272727"/><line x1="2295.1724137931046" y1="1059.3103448275865" x2="2383.44827586207" y2="971.0344827586209" stroke-linecap="square" stroke-width="5" stroke="#272727"/><line x1="2383.44827586207" y1="1059.3103448275865" x2="2471.724137931036" y2="971.0344827586209" stroke-linecap="square" stroke-width="5" stroke="#262626"/><line x1="2471.724137931036" y1="971.0344827586209" x2="2560.0000000000014" y2="1059.3103448275865" stroke-linecap="square" stroke-width="5" stroke="#262626"/><line x1="0" y1="1059.3103448275865" x2="88.27586206896552" y2="1147.586206896552" stroke-linecap="square" stroke-width="5" stroke="#322f2f"/><line x1="88.27586206896552" y1="1147.586206896552" x2="176.55172413793105" y2="1059.3103448275865" stroke-linecap="square" stroke-width="5" stroke="#312e2e"/><line x1="176.55172413793105" y1="1059.3103448275865" x2="264.82758620689657" y2="1147.586206896552" stroke-linecap="square" stroke-width="5" stroke="#312e2e"/><line x1="264.82758620689657" y1="1059.3103448275865" x2="353.1034482758621" y2="1147.586206896552" stroke-linecap="square" stroke-width="5" stroke="#302e2e"/><line x1="353.1034482758621" y1="1059.3103448275865" x2="441.3793103448276" y2="1147.586206896552" stroke-linecap="square" stroke-width="5" stroke="#302d2d"/><line x1="441.3793103448276" y1="1059.3103448275865" x2="529.6551724137931" y2="1147.586206896552" stroke-linecap="square" stroke-width="5" stroke="#302d2d"/><line x1="529.6551724137931" y1="1147.586206896552" x2="617.9310344827586" y2="1059.3103448275865" stroke-linecap="square" stroke-width="5" stroke="#2f2d2d"/><line x1="617.9310344827586" y1="1147.586206896552" x2="706.2068965517242" y2="1059.3103448275865" stroke-linecap="square" stroke-width="5" stroke="#2f2d2d"/><line x1="706.2068965517242" y1="1059.3103448275865" x2="794.4827586206898" y2="1147.586206896552" stroke-linecap="square" stroke-width="5" stroke="#2e2c2c"/><line x1="794.4827586206898" y1="1059.3103448275865" x2="882.7586206896553" y2="1147.586206896552" stroke-linecap="square" stroke-width="5" stroke="#2e2c2c"/><line x1="882.7586206896553" y1="1059.3103448275865" x2="971.0344827586209" y2="1147.586206896552" stroke-linecap="square" stroke-width="5" stroke="#2d2c2c"/><line x1="971.0344827586209" y1="1059.3103448275865" x2="1059.3103448275865" y2="1147.586206896552" stroke-linecap="square" stroke-width="5" stroke="#2d2b2b"/><line x1="1059.3103448275865" y1="1147.586206896552" x2="1147.586206896552" y2="1059.3103448275865" stroke-linecap="square" stroke-width="5" stroke="#2d2b2b"/><line x1="1147.586206896552" y1="1059.3103448275865" x2="1235.8620689655177" y2="1147.586206896552" stroke-linecap="square" stroke-width="5" stroke="#2c2b2b"/><line x1="1235.8620689655177" y1="1147.586206896552" x2="1324.1379310344832" y2="1059.3103448275865" stroke-linecap="square" stroke-width="5" stroke="#2c2a2a"/><line x1="1324.1379310344832" y1="1147.586206896552" x2="1412.4137931034488" y2="1059.3103448275865" stroke-linecap="square" stroke-width="5" stroke="#2b2a2a"/><line x1="1412.4137931034488" y1="1059.3103448275865" x2="1500.6896551724144" y2="1147.586206896552" stroke-linecap="square" stroke-width="5" stroke="#2b2a2a"/><line x1="1500.6896551724144" y1="1147.586206896552" x2="1588.96551724138" y2="1059.3103448275865" stroke-linecap="square" stroke-width="5" stroke="#2b2929"/><line x1="1588.96551724138" y1="1059.3103448275865" x2="1677.2413793103456" y2="1147.586206896552" stroke-linecap="square" stroke-width="5" stroke="#2a2929"/><line x1="1677.2413793103456" y1="1059.3103448275865" x2="1765.5172413793111" y2="1147.586206896552" stroke-linecap="square" stroke-width="5" stroke="#2a2929"/><line x1="1765.5172413793111" y1="1147.586206896552" x2="1853.7931034482767" y2="1059.3103448275865" stroke-linecap="square" stroke-width="5" stroke="#292828"/><line x1="1853.7931034482767" y1="1059.3103448275865" x2="1942.0689655172423" y2="1147.586206896552" stroke-linecap="square" stroke-width="5" stroke="#292828"/><line x1="1942.0689655172423" y1="1147.586206896552" x2="2030.3448275862079" y2="1059.3103448275865" stroke-linecap="square" stroke-width="5" stroke="#282828"/><line x1="2030.3448275862079" y1="1147.586206896552" x2="2118.6206896551735" y2="1059.3103448275865" stroke-linecap="square" stroke-width="5" stroke="#282828"/><line x1="2118.6206896551735" y1="1147.586206896552" x2="2206.896551724139" y2="1059.3103448275865" stroke-linecap="square" stroke-width="5" stroke="#282727"/><line x1="2206.896551724139" y1="1059.3103448275865" x2="2295.1724137931046" y2="1147.586206896552" stroke-linecap="square" stroke-width="5" stroke="#272727"/><line x1="2295.1724137931046" y1="1059.3103448275865" x2="2383.44827586207" y2="1147.586206896552" stroke-linecap="square" stroke-width="5" stroke="#272727"/><line x1="2383.44827586207" y1="1147.586206896552" x2="2471.724137931036" y2="1059.3103448275865" stroke-linecap="square" stroke-width="5" stroke="#262626"/><line x1="2471.724137931036" y1="1059.3103448275865" x2="2560.0000000000014" y2="1147.586206896552" stroke-linecap="square" stroke-width="5" stroke="#262626"/><line x1="0" y1="1235.8620689655177" x2="88.27586206896552" y2="1147.586206896552" stroke-linecap="square" stroke-width="5" stroke="#322f2f"/><line x1="88.27586206896552" y1="1235.8620689655177" x2="176.55172413793105" y2="1147.586206896552" stroke-linecap="square" stroke-width="5" stroke="#312e2e"/><line x1="176.55172413793105" y1="1235.8620689655177" x2="264.82758620689657" y2="1147.586206896552" stroke-linecap="square" stroke-width="5" stroke="#312e2e"/><line x1="264.82758620689657" y1="1147.586206896552" x2="353.1034482758621" y2="1235.8620689655177" stroke-linecap="square" stroke-width="5" stroke="#302e2e"/><line x1="353.1034482758621" y1="1235.8620689655177" x2="441.3793103448276" y2="1147.586206896552" stroke-linecap="square" stroke-width="5" stroke="#302d2d"/><line x1="441.3793103448276" y1="1147.586206896552" x2="529.6551724137931" y2="1235.8620689655177" stroke-linecap="square" stroke-width="5" stroke="#302d2d"/><line x1="529.6551724137931" y1="1147.586206896552" x2="617.9310344827586" y2="1235.8620689655177" stroke-linecap="square" stroke-width="5" stroke="#2f2d2d"/><line x1="617.9310344827586" y1="1147.586206896552" x2="706.2068965517242" y2="1235.8620689655177" stroke-linecap="square" stroke-width="5" stroke="#2f2d2d"/><line x1="706.2068965517242" y1="1147.586206896552" x2="794.4827586206898" y2="1235.8620689655177" stroke-linecap="square" stroke-width="5" stroke="#2e2c2c"/><line x1="794.4827586206898" y1="1147.586206896552" x2="882.7586206896553" y2="1235.8620689655177" stroke-linecap="square" stroke-width="5" stroke="#2e2c2c"/><line x1="882.7586206896553" y1="1147.586206896552" x2="971.0344827586209" y2="1235.8620689655177" stroke-linecap="square" stroke-width="5" stroke="#2d2c2c"/><line x1="971.0344827586209" y1="1235.8620689655177" x2="1059.3103448275865" y2="1147.586206896552" stroke-linecap="square" stroke-width="5" stroke="#2d2b2b"/><line x1="1059.3103448275865" y1="1147.586206896552" x2="1147.586206896552" y2="1235.8620689655177" stroke-linecap="square" stroke-width="5" stroke="#2d2b2b"/><line x1="1147.586206896552" y1="1147.586206896552" x2="1235.8620689655177" y2="1235.8620689655177" stroke-linecap="square" stroke-width="5" stroke="#2c2b2b"/><line x1="1235.8620689655177" y1="1147.586206896552" x2="1324.1379310344832" y2="1235.8620689655177" stroke-linecap="square" stroke-width="5" stroke="#2c2a2a"/><line x1="1324.1379310344832" y1="1235.8620689655177" x2="1412.4137931034488" y2="1147.586206896552" stroke-linecap="square" stroke-width="5" stroke="#2b2a2a"/><line x1="1412.4137931034488" y1="1235.8620689655177" x2="1500.6896551724144" y2="1147.586206896552" stroke-linecap="square" stroke-width="5" stroke="#2b2a2a"/><line x1="1500.6896551724144" y1="1235.8620689655177" x2="1588.96551724138" y2="1147.586206896552" stroke-linecap="square" stroke-width="5" stroke="#2b2929"/><line x1="1588.96551724138" y1="1235.8620689655177" x2="1677.2413793103456" y2="1147.586206896552" stroke-linecap="square" stroke-width="5" stroke="#2a2929"/><line x1="1677.2413793103456" y1="1147.586206896552" x2="1765.5172413793111" y2="1235.8620689655177" stroke-linecap="square" stroke-width="5" stroke="#2a2929"/><line x1="1765.5172413793111" y1="1235.8620689655177" x2="1853.7931034482767" y2="1147.586206896552" stroke-linecap="square" stroke-width="5" stroke="#292828"/><line x1="1853.7931034482767" y1="1235.8620689655177" x2="1942.0689655172423" y2="1147.586206896552" stroke-linecap="square" stroke-width="5" stroke="#292828"/><line x1="1942.0689655172423" y1="1147.586206896552" x2="2030.3448275862079" y2="1235.8620689655177" stroke-linecap="square" stroke-width="5" stroke="#282828"/><line x1="2030.3448275862079" y1="1147.586206896552" x2="2118.6206896551735" y2="1235.8620689655177" stroke-linecap="square" stroke-width="5" stroke="#282828"/><line x1="2118.6206896551735" y1="1235.8620689655177" x2="2206.896551724139" y2="1147.586206896552" stroke-linecap="square" stroke-width="5" stroke="#282727"/><line x1="2206.896551724139" y1="1235.8620689655177" x2="2295.1724137931046" y2="1147.586206896552" stroke-linecap="square" stroke-width="5" stroke="#272727"/><line x1="2295.1724137931046" y1="1147.586206896552" x2="2383.44827586207" y2="1235.8620689655177" stroke-linecap="square" stroke-width="5" stroke="#272727"/><line x1="2383.44827586207" y1="1235.8620689655177" x2="2471.724137931036" y2="1147.586206896552" stroke-linecap="square" stroke-width="5" stroke="#262626"/><line x1="2471.724137931036" y1="1147.586206896552" x2="2560.0000000000014" y2="1235.8620689655177" stroke-linecap="square" stroke-width="5" stroke="#262626"/><line x1="0" y1="1235.8620689655177" x2="88.27586206896552" y2="1324.1379310344832" stroke-linecap="square" stroke-width="5" stroke="#322f2f"/><line x1="88.27586206896552" y1="1324.1379310344832" x2="176.55172413793105" y2="1235.8620689655177" stroke-linecap="square" stroke-width="5" stroke="#312e2e"/><line x1="176.55172413793105" y1="1235.8620689655177" x2="264.82758620689657" y2="1324.1379310344832" stroke-linecap="square" stroke-width="5" stroke="#312e2e"/><line x1="264.82758620689657" y1="1235.8620689655177" x2="353.1034482758621" y2="1324.1379310344832" stroke-linecap="square" stroke-width="5" stroke="#302e2e"/><line x1="353.1034482758621" y1="1235.8620689655177" x2="441.3793103448276" y2="1324.1379310344832" stroke-linecap="square" stroke-width="5" stroke="#302d2d"/><line x1="441.3793103448276" y1="1235.8620689655177" x2="529.6551724137931" y2="1324.1379310344832" stroke-linecap="square" stroke-width="5" stroke="#302d2d"/><line x1="529.6551724137931" y1="1324.1379310344832" x2="617.9310344827586" y2="1235.8620689655177" stroke-linecap="square" stroke-width="5" stroke="#2f2d2d"/><line x1="617.9310344827586" y1="1235.8620689655177" x2="706.2068965517242" y2="1324.1379310344832" stroke-linecap="square" stroke-width="5" stroke="#2f2d2d"/><line x1="706.2068965517242" y1="1324.1379310344832" x2="794.4827586206898" y2="1235.8620689655177" stroke-linecap="square" stroke-width="5" stroke="#2e2c2c"/><line x1="794.4827586206898" y1="1324.1379310344832" x2="882.7586206896553" y2="1235.8620689655177" stroke-linecap="square" stroke-width="5" stroke="#2e2c2c"/><line x1="882.7586206896553" y1="1324.1379310344832" x2="971.0344827586209" y2="1235.8620689655177" stroke-linecap="square" stroke-width="5" stroke="#2d2c2c"/><line x1="971.0344827586209" y1="1235.8620689655177" x2="1059.3103448275865" y2="1324.1379310344832" stroke-linecap="square" stroke-width="5" stroke="#2d2b2b"/><line x1="1059.3103448275865" y1="1324.1379310344832" x2="1147.586206896552" y2="1235.8620689655177" stroke-linecap="square" stroke-width="5" stroke="#2d2b2b"/><line x1="1147.586206896552" y1="1324.1379310344832" x2="1235.8620689655177" y2="1235.8620689655177" stroke-linecap="square" stroke-width="5" stroke="#2c2b2b"/><line x1="1235.8620689655177" y1="1235.8620689655177" x2="1324.1379310344832" y2="1324.1379310344832" stroke-linecap="square" stroke-width="5" stroke="#2c2a2a"/><line x1="1324.1379310344832" y1="1235.8620689655177" x2="1412.4137931034488" y2="1324.1379310344832" stroke-linecap="square" stroke-width="5" stroke="#2b2a2a"/><line x1="1412.4137931034488" y1="1235.8620689655177" x2="1500.6896551724144" y2="1324.1379310344832" stroke-linecap="square" stroke-width="5" stroke="#2b2a2a"/><line x1="1500.6896551724144" y1="1235.8620689655177" x2="1588.96551724138" y2="1324.1379310344832" stroke-linecap="square" stroke-width="5" stroke="#2b2929"/><line x1="1588.96551724138" y1="1324.1379310344832" x2="1677.2413793103456" y2="1235.8620689655177" stroke-linecap="square" stroke-width="5" stroke="#2a2929"/><line x1="1677.2413793103456" y1="1235.8620689655177" x2="1765.5172413793111" y2="1324.1379310344832" stroke-linecap="square" stroke-width="5" stroke="#2a2929"/><line x1="1765.5172413793111" y1="1324.1379310344832" x2="1853.7931034482767" y2="1235.8620689655177" stroke-linecap="square" stroke-width="5" stroke="#292828"/><line x1="1853.7931034482767" y1="1235.8620689655177" x2="1942.0689655172423" y2="1324.1379310344832" stroke-linecap="square" stroke-width="5" stroke="#292828"/><line x1="1942.0689655172423" y1="1235.8620689655177" x2="2030.3448275862079" y2="1324.1379310344832" stroke-linecap="square" stroke-width="5" stroke="#282828"/><line x1="2030.3448275862079" y1="1235.8620689655177" x2="2118.6206896551735" y2="1324.1379310344832" stroke-linecap="square" stroke-width="5" stroke="#282828"/><line x1="2118.6206896551735" y1="1235.8620689655177" x2="2206.896551724139" y2="1324.1379310344832" stroke-linecap="square" stroke-width="5" stroke="#282727"/><line x1="2206.896551724139" y1="1324.1379310344832" x2="2295.1724137931046" y2="1235.8620689655177" stroke-linecap="square" stroke-width="5" stroke="#272727"/><line x1="2295.1724137931046" y1="1324.1379310344832" x2="2383.44827586207" y2="1235.8620689655177" stroke-linecap="square" stroke-width="5" stroke="#272727"/><line x1="2383.44827586207" y1="1324.1379310344832" x2="2471.724137931036" y2="1235.8620689655177" stroke-linecap="square" stroke-width="5" stroke="#262626"/><line x1="2471.724137931036" y1="1235.8620689655177" x2="2560.0000000000014" y2="1324.1379310344832" stroke-linecap="square" stroke-width="5" stroke="#262626"/><line x1="0" y1="1324.1379310344832" x2="88.27586206896552" y2="1412.4137931034488" stroke-linecap="square" stroke-width="5" stroke="#322f2f"/><line x1="88.27586206896552" y1="1412.4137931034488" x2="176.55172413793105" y2="1324.1379310344832" stroke-linecap="square" stroke-width="5" stroke="#312e2e"/><line x1="176.55172413793105" y1="1324.1379310344832" x2="264.82758620689657" y2="1412.4137931034488" stroke-linecap="square" stroke-width="5" stroke="#312e2e"/><line x1="264.82758620689657" y1="1324.1379310344832" x2="353.1034482758621" y2="1412.4137931034488" stroke-linecap="square" stroke-width="5" stroke="#302e2e"/><line x1="353.1034482758621" y1="1412.4137931034488" x2="441.3793103448276" y2="1324.1379310344832" stroke-linecap="square" stroke-width="5" stroke="#302d2d"/><line x1="441.3793103448276" y1="1324.1379310344832" x2="529.6551724137931" y2="1412.4137931034488" stroke-linecap="square" stroke-width="5" stroke="#302d2d"/><line x1="529.6551724137931" y1="1324.1379310344832" x2="617.9310344827586" y2="1412.4137931034488" stroke-linecap="square" stroke-width="5" stroke="#2f2d2d"/><line x1="617.9310344827586" y1="1324.1379310344832" x2="706.2068965517242" y2="1412.4137931034488" stroke-linecap="square" stroke-width="5" stroke="#2f2d2d"/><line x1="706.2068965517242" y1="1412.4137931034488" x2="794.4827586206898" y2="1324.1379310344832" stroke-linecap="square" stroke-width="5" stroke="#2e2c2c"/><line x1="794.4827586206898" y1="1412.4137931034488" x2="882.7586206896553" y2="1324.1379310344832" stroke-linecap="square" stroke-width="5" stroke="#2e2c2c"/><line x1="882.7586206896553" y1="1324.1379310344832" x2="971.0344827586209" y2="1412.4137931034488" stroke-linecap="square" stroke-width="5" stroke="#2d2c2c"/><line x1="971.0344827586209" y1="1412.4137931034488" x2="1059.3103448275865" y2="1324.1379310344832" stroke-linecap="square" stroke-width="5" stroke="#2d2b2b"/><line x1="1059.3103448275865" y1="1412.4137931034488" x2="1147.586206896552" y2="1324.1379310344832" stroke-linecap="square" stroke-width="5" stroke="#2d2b2b"/><line x1="1147.586206896552" y1="1412.4137931034488" x2="1235.8620689655177" y2="1324.1379310344832" stroke-linecap="square" stroke-width="5" stroke="#2c2b2b"/><line x1="1235.8620689655177" y1="1324.1379310344832" x2="1324.1379310344832" y2="1412.4137931034488" stroke-linecap="square" stroke-width="5" stroke="#2c2a2a"/><line x1="1324.1379310344832" y1="1412.4137931034488" x2="1412.4137931034488" y2="1324.1379310344832" stroke-linecap="square" stroke-width="5" stroke="#2b2a2a"/><line x1="1412.4137931034488" y1="1324.1379310344832" x2="1500.6896551724144" y2="1412.4137931034488" stroke-linecap="square" stroke-width="5" stroke="#2b2a2a"/><line x1="1500.6896551724144" y1="1324.1379310344832" x2="1588.96551724138" y2="1412.4137931034488" stroke-linecap="square" stroke-width="5" stroke="#2b2929"/><line x1="1588.96551724138" y1="1412.4137931034488" x2="1677.2413793103456" y2="1324.1379310344832" stroke-linecap="square" stroke-width="5" stroke="#2a2929"/><line x1="1677.2413793103456" y1="1412.4137931034488" x2="1765.5172413793111" y2="1324.1379310344832" stroke-linecap="square" stroke-width="5" stroke="#2a2929"/><line x1="1765.5172413793111" y1="1324.1379310344832" x2="1853.7931034482767" y2="1412.4137931034488" stroke-linecap="square" stroke-width="5" stroke="#292828"/><line x1="1853.7931034482767" y1="1412.4137931034488" x2="1942.0689655172423" y2="1324.1379310344832" stroke-linecap="square" stroke-width="5" stroke="#292828"/><line x1="1942.0689655172423" y1="1412.4137931034488" x2="2030.3448275862079" y2="1324.1379310344832" stroke-linecap="square" stroke-width="5" stroke="#282828"/><line x1="2030.3448275862079" y1="1412.4137931034488" x2="2118.6206896551735" y2="1324.1379310344832" stroke-linecap="square" stroke-width="5" stroke="#282828"/><line x1="2118.6206896551735" y1="1412.4137931034488" x2="2206.896551724139" y2="1324.1379310344832" stroke-linecap="square" stroke-width="5" stroke="#282727"/><line x1="2206.896551724139" y1="1412.4137931034488" x2="2295.1724137931046" y2="1324.1379310344832" stroke-linecap="square" stroke-width="5" stroke="#272727"/><line x1="2295.1724137931046" y1="1324.1379310344832" x2="2383.44827586207" y2="1412.4137931034488" stroke-linecap="square" stroke-width="5" stroke="#272727"/><line x1="2383.44827586207" y1="1412.4137931034488" x2="2471.724137931036" y2="1324.1379310344832" stroke-linecap="square" stroke-width="5" stroke="#262626"/><line x1="2471.724137931036" y1="1324.1379310344832" x2="2560.0000000000014" y2="1412.4137931034488" stroke-linecap="square" stroke-width="5" stroke="#262626"/><line x1="0" y1="1412.4137931034488" x2="88.27586206896552" y2="1500.6896551724144" stroke-linecap="square" stroke-width="5" stroke="#322f2f"/><line x1="88.27586206896552" y1="1412.4137931034488" x2="176.55172413793105" y2="1500.6896551724144" stroke-linecap="square" stroke-width="5" stroke="#312e2e"/><line x1="176.55172413793105" y1="1412.4137931034488" x2="264.82758620689657" y2="1500.6896551724144" stroke-linecap="square" stroke-width="5" stroke="#312e2e"/><line x1="264.82758620689657" y1="1500.6896551724144" x2="353.1034482758621" y2="1412.4137931034488" stroke-linecap="square" stroke-width="5" stroke="#302e2e"/><line x1="353.1034482758621" y1="1412.4137931034488" x2="441.3793103448276" y2="1500.6896551724144" stroke-linecap="square" stroke-width="5" stroke="#302d2d"/><line x1="441.3793103448276" y1="1412.4137931034488" x2="529.6551724137931" y2="1500.6896551724144" stroke-linecap="square" stroke-width="5" stroke="#302d2d"/><line x1="529.6551724137931" y1="1500.6896551724144" x2="617.9310344827586" y2="1412.4137931034488" stroke-linecap="square" stroke-width="5" stroke="#2f2d2d"/><line x1="617.9310344827586" y1="1500.6896551724144" x2="706.2068965517242" y2="1412.4137931034488" stroke-linecap="square" stroke-width="5" stroke="#2f2d2d"/><line x1="706.2068965517242" y1="1412.4137931034488" x2="794.4827586206898" y2="1500.6896551724144" stroke-linecap="square" stroke-width="5" stroke="#2e2c2c"/><line x1="794.4827586206898" y1="1412.4137931034488" x2="882.7586206896553" y2="1500.6896551724144" stroke-linecap="square" stroke-width="5" stroke="#2e2c2c"/><line x1="882.7586206896553" y1="1500.6896551724144" x2="971.0344827586209" y2="1412.4137931034488" stroke-linecap="square" stroke-width="5" stroke="#2d2c2c"/><line x1="971.0344827586209" y1="1500.6896551724144" x2="1059.3103448275865" y2="1412.4137931034488" stroke-linecap="square" stroke-width="5" stroke="#2d2b2b"/><line x1="1059.3103448275865" y1="1500.6896551724144" x2="1147.586206896552" y2="1412.4137931034488" stroke-linecap="square" stroke-width="5" stroke="#2d2b2b"/><line x1="1147.586206896552" y1="1412.4137931034488" x2="1235.8620689655177" y2="1500.6896551724144" stroke-linecap="square" stroke-width="5" stroke="#2c2b2b"/><line x1="1235.8620689655177" y1="1412.4137931034488" x2="1324.1379310344832" y2="1500.6896551724144" stroke-linecap="square" stroke-width="5" stroke="#2c2a2a"/><line x1="1324.1379310344832" y1="1500.6896551724144" x2="1412.4137931034488" y2="1412.4137931034488" stroke-linecap="square" stroke-width="5" stroke="#2b2a2a"/><line x1="1412.4137931034488" y1="1412.4137931034488" x2="1500.6896551724144" y2="1500.6896551724144" stroke-linecap="square" stroke-width="5" stroke="#2b2a2a"/><line x1="1500.6896551724144" y1="1412.4137931034488" x2="1588.96551724138" y2="1500.6896551724144" stroke-linecap="square" stroke-width="5" stroke="#2b2929"/><line x1="1588.96551724138" y1="1500.6896551724144" x2="1677.2413793103456" y2="1412.4137931034488" stroke-linecap="square" stroke-width="5" stroke="#2a2929"/><line x1="1677.2413793103456" y1="1412.4137931034488" x2="1765.5172413793111" y2="1500.6896551724144" stroke-linecap="square" stroke-width="5" stroke="#2a2929"/><line x1="1765.5172413793111" y1="1500.6896551724144" x2="1853.7931034482767" y2="1412.4137931034488" stroke-linecap="square" stroke-width="5" stroke="#292828"/><line x1="1853.7931034482767" y1="1500.6896551724144" x2="1942.0689655172423" y2="1412.4137931034488" stroke-linecap="square" stroke-width="5" stroke="#292828"/><line x1="1942.0689655172423" y1="1500.6896551724144" x2="2030.3448275862079" y2="1412.4137931034488" stroke-linecap="square" stroke-width="5" stroke="#282828"/><line x1="2030.3448275862079" y1="1500.6896551724144" x2="2118.6206896551735" y2="1412.4137931034488" stroke-linecap="square" stroke-width="5" stroke="#282828"/><line x1="2118.6206896551735" y1="1412.4137931034488" x2="2206.896551724139" y2="1500.6896551724144" stroke-linecap="square" stroke-width="5" stroke="#282727"/><line x1="2206.896551724139" y1="1412.4137931034488" x2="2295.1724137931046" y2="1500.6896551724144" stroke-linecap="square" stroke-width="5" stroke="#272727"/><line x1="2295.1724137931046" y1="1412.4137931034488" x2="2383.44827586207" y2="1500.6896551724144" stroke-linecap="square" stroke-width="5" stroke="#272727"/><line x1="2383.44827586207" y1="1412.4137931034488" x2="2471.724137931036" y2="1500.6896551724144" stroke-linecap="square" stroke-width="5" stroke="#262626"/><line x1="2471.724137931036" y1="1412.4137931034488" x2="2560.0000000000014" y2="1500.6896551724144" stroke-linecap="square" stroke-width="5" stroke="#262626"/><line x1="0" y1="1588.96551724138" x2="88.27586206896552" y2="1500.6896551724144" stroke-linecap="square" stroke-width="5" stroke="#322f2f"/><line x1="88.27586206896552" y1="1500.6896551724144" x2="176.55172413793105" y2="1588.96551724138" stroke-linecap="square" stroke-width="5" stroke="#312e2e"/><line x1="176.55172413793105" y1="1588.96551724138" x2="264.82758620689657" y2="1500.6896551724144" stroke-linecap="square" stroke-width="5" stroke="#312e2e"/><line x1="264.82758620689657" y1="1500.6896551724144" x2="353.1034482758621" y2="1588.96551724138" stroke-linecap="square" stroke-width="5" stroke="#302e2e"/><line x1="353.1034482758621" y1="1588.96551724138" x2="441.3793103448276" y2="1500.6896551724144" stroke-linecap="square" stroke-width="5" stroke="#302d2d"/><line x1="441.3793103448276" y1="1588.96551724138" x2="529.6551724137931" y2="1500.6896551724144" stroke-linecap="square" stroke-width="5" stroke="#302d2d"/><line x1="529.6551724137931" y1="1500.6896551724144" x2="617.9310344827586" y2="1588.96551724138" stroke-linecap="square" stroke-width="5" stroke="#2f2d2d"/><line x1="617.9310344827586" y1="1500.6896551724144" x2="706.2068965517242" y2="1588.96551724138" stroke-linecap="square" stroke-width="5" stroke="#2f2d2d"/><line x1="706.2068965517242" y1="1588.96551724138" x2="794.4827586206898" y2="1500.6896551724144" stroke-linecap="square" stroke-width="5" stroke="#2e2c2c"/><line x1="794.4827586206898" y1="1500.6896551724144" x2="882.7586206896553" y2="1588.96551724138" stroke-linecap="square" stroke-width="5" stroke="#2e2c2c"/><line x1="882.7586206896553" y1="1500.6896551724144" x2="971.0344827586209" y2="1588.96551724138" stroke-linecap="square" stroke-width="5" stroke="#2d2c2c"/><line x1="971.0344827586209" y1="1500.6896551724144" x2="1059.3103448275865" y2="1588.96551724138" stroke-linecap="square" stroke-width="5" stroke="#2d2b2b"/><line x1="1059.3103448275865" y1="1500.6896551724144" x2="1147.586206896552" y2="1588.96551724138" stroke-linecap="square" stroke-width="5" stroke="#2d2b2b"/><line x1="1147.586206896552" y1="1500.6896551724144" x2="1235.8620689655177" y2="1588.96551724138" stroke-linecap="square" stroke-width="5" stroke="#2c2b2b"/><line x1="1235.8620689655177" y1="1500.6896551724144" x2="1324.1379310344832" y2="1588.96551724138" stroke-linecap="square" stroke-width="5" stroke="#2c2a2a"/><line x1="1324.1379310344832" y1="1588.96551724138" x2="1412.4137931034488" y2="1500.6896551724144" stroke-linecap="square" stroke-width="5" stroke="#2b2a2a"/><line x1="1412.4137931034488" y1="1588.96551724138" x2="1500.6896551724144" y2="1500.6896551724144" stroke-linecap="square" stroke-width="5" stroke="#2b2a2a"/><line x1="1500.6896551724144" y1="1588.96551724138" x2="1588.96551724138" y2="1500.6896551724144" stroke-linecap="square" stroke-width="5" stroke="#2b2929"/><line x1="1588.96551724138" y1="1588.96551724138" x2="1677.2413793103456" y2="1500.6896551724144" stroke-linecap="square" stroke-width="5" stroke="#2a2929"/><line x1="1677.2413793103456" y1="1500.6896551724144" x2="1765.5172413793111" y2="1588.96551724138" stroke-linecap="square" stroke-width="5" stroke="#2a2929"/><line x1="1765.5172413793111" y1="1588.96551724138" x2="1853.7931034482767" y2="1500.6896551724144" stroke-linecap="square" stroke-width="5" stroke="#292828"/><line x1="1853.7931034482767" y1="1588.96551724138" x2="1942.0689655172423" y2="1500.6896551724144" stroke-linecap="square" stroke-width="5" stroke="#292828"/><line x1="1942.0689655172423" y1="1588.96551724138" x2="2030.3448275862079" y2="1500.6896551724144" stroke-linecap="square" stroke-width="5" stroke="#282828"/><line x1="2030.3448275862079" y1="1500.6896551724144" x2="2118.6206896551735" y2="1588.96551724138" stroke-linecap="square" stroke-width="5" stroke="#282828"/><line x1="2118.6206896551735" y1="1588.96551724138" x2="2206.896551724139" y2="1500.6896551724144" stroke-linecap="square" stroke-width="5" stroke="#282727"/><line x1="2206.896551724139" y1="1500.6896551724144" x2="2295.1724137931046" y2="1588.96551724138" stroke-linecap="square" stroke-width="5" stroke="#272727"/><line x1="2295.1724137931046" y1="1500.6896551724144" x2="2383.44827586207" y2="1588.96551724138" stroke-linecap="square" stroke-width="5" stroke="#272727"/><line x1="2383.44827586207" y1="1588.96551724138" x2="2471.724137931036" y2="1500.6896551724144" stroke-linecap="square" stroke-width="5" stroke="#262626"/><line x1="2471.724137931036" y1="1500.6896551724144" x2="2560.0000000000014" y2="1588.96551724138" stroke-linecap="square" stroke-width="5" stroke="#262626"/><line x1="0" y1="1588.96551724138" x2="88.27586206896552" y2="1677.2413793103456" stroke-linecap="square" stroke-width="5" stroke="#322f2f"/><line x1="88.27586206896552" y1="1677.2413793103456" x2="176.55172413793105" y2="1588.96551724138" stroke-linecap="square" stroke-width="5" stroke="#312e2e"/><line x1="176.55172413793105" y1="1588.96551724138" x2="264.82758620689657" y2="1677.2413793103456" stroke-linecap="square" stroke-width="5" stroke="#312e2e"/><line x1="264.82758620689657" y1="1588.96551724138" x2="353.1034482758621" y2="1677.2413793103456" stroke-linecap="square" stroke-width="5" stroke="#302e2e"/><line x1="353.1034482758621" y1="1677.2413793103456" x2="441.3793103448276" y2="1588.96551724138" stroke-linecap="square" stroke-width="5" stroke="#302d2d"/><line x1="441.3793103448276" y1="1677.2413793103456" x2="529.6551724137931" y2="1588.96551724138" stroke-linecap="square" stroke-width="5" stroke="#302d2d"/><line x1="529.6551724137931" y1="1588.96551724138" x2="617.9310344827586" y2="1677.2413793103456" stroke-linecap="square" stroke-width="5" stroke="#2f2d2d"/><line x1="617.9310344827586" y1="1677.2413793103456" x2="706.2068965517242" y2="1588.96551724138" stroke-linecap="square" stroke-width="5" stroke="#2f2d2d"/><line x1="706.2068965517242" y1="1677.2413793103456" x2="794.4827586206898" y2="1588.96551724138" stroke-linecap="square" stroke-width="5" stroke="#2e2c2c"/><line x1="794.4827586206898" y1="1588.96551724138" x2="882.7586206896553" y2="1677.2413793103456" stroke-linecap="square" stroke-width="5" stroke="#2e2c2c"/><line x1="882.7586206896553" y1="1588.96551724138" x2="971.0344827586209" y2="1677.2413793103456" stroke-linecap="square" stroke-width="5" stroke="#2d2c2c"/><line x1="971.0344827586209" y1="1677.2413793103456" x2="1059.3103448275865" y2="1588.96551724138" stroke-linecap="square" stroke-width="5" stroke="#2d2b2b"/><line x1="1059.3103448275865" y1="1588.96551724138" x2="1147.586206896552" y2="1677.2413793103456" stroke-linecap="square" stroke-width="5" stroke="#2d2b2b"/><line x1="1147.586206896552" y1="1677.2413793103456" x2="1235.8620689655177" y2="1588.96551724138" stroke-linecap="square" stroke-width="5" stroke="#2c2b2b"/><line x1="1235.8620689655177" y1="1677.2413793103456" x2="1324.1379310344832" y2="1588.96551724138" stroke-linecap="square" stroke-width="5" stroke="#2c2a2a"/><line x1="1324.1379310344832" y1="1677.2413793103456" x2="1412.4137931034488" y2="1588.96551724138" stroke-linecap="square" stroke-width="5" stroke="#2b2a2a"/><line x1="1412.4137931034488" y1="1677.2413793103456" x2="1500.6896551724144" y2="1588.96551724138" stroke-linecap="square" stroke-width="5" stroke="#2b2a2a"/><line x1="1500.6896551724144" y1="1588.96551724138" x2="1588.96551724138" y2="1677.2413793103456" stroke-linecap="square" stroke-width="5" stroke="#2b2929"/><line x1="1588.96551724138" y1="1588.96551724138" x2="1677.2413793103456" y2="1677.2413793103456" stroke-linecap="square" stroke-width="5" stroke="#2a2929"/><line x1="1677.2413793103456" y1="1677.2413793103456" x2="1765.5172413793111" y2="1588.96551724138" stroke-linecap="square" stroke-width="5" stroke="#2a2929"/><line x1="1765.5172413793111" y1="1677.2413793103456" x2="1853.7931034482767" y2="1588.96551724138" stroke-linecap="square" stroke-width="5" stroke="#292828"/><line x1="1853.7931034482767" y1="1677.2413793103456" x2="1942.0689655172423" y2="1588.96551724138" stroke-linecap="square" stroke-width="5" stroke="#292828"/><line x1="1942.0689655172423" y1="1588.96551724138" x2="2030.3448275862079" y2="1677.2413793103456" stroke-linecap="square" stroke-width="5" stroke="#282828"/><line x1="2030.3448275862079" y1="1677.2413793103456" x2="2118.6206896551735" y2="1588.96551724138" stroke-linecap="square" stroke-width="5" stroke="#282828"/><line x1="2118.6206896551735" y1="1677.2413793103456" x2="2206.896551724139" y2="1588.96551724138" stroke-linecap="square" stroke-width="5" stroke="#282727"/><line x1="2206.896551724139" y1="1677.2413793103456" x2="2295.1724137931046" y2="1588.96551724138" stroke-linecap="square" stroke-width="5" stroke="#272727"/><line x1="2295.1724137931046" y1="1588.96551724138" x2="2383.44827586207" y2="1677.2413793103456" stroke-linecap="square" stroke-width="5" stroke="#272727"/><line x1="2383.44827586207" y1="1677.2413793103456" x2="2471.724137931036" y2="1588.96551724138" stroke-linecap="square" stroke-width="5" stroke="#262626"/><line x1="2471.724137931036" y1="1588.96551724138" x2="2560.0000000000014" y2="1677.2413793103456" stroke-linecap="square" stroke-width="5" stroke="#262626"/></svg>